<svg xmlns="http://www.w3.org/2000/svg" width="164" height="31" viewBox="0 0 164 31" fill="none">
  <link xmlns="" type="text/css" rel="stylesheet" id="dark-mode-custom-link" />
  <link xmlns="" type="text/css" rel="stylesheet" id="dark-mode-general-link" />
  <style xmlns="" lang="en" type="text/css" id="dark-mode-custom-style" />
  <style xmlns="" lang="en" type="text/css" id="dark-mode-native-style" />
  <style xmlns="" lang="en" type="text/css" id="dark-mode-native-sheet" />
  <path d="M69.7196 26.3779H53.6797V30.3011H69.7196V26.3779Z" fill="#000" />
  <path d="M4.52127 9.16016H0V30.3002H4.52127V9.16016Z" fill="#000" />
  <path
    d="M47.8153 26.4681V30.3012C46.3232 30.6164 45.0755 30.7771 44.0722 30.7771C41.6025 30.7771 39.686 30.1597 38.3225 28.9249C36.9591 27.6901 36.2773 25.8507 36.2773 23.4132V3.60449H40.8436V9.16122H47.1271V13.0779H40.8372V23.0273C40.8372 24.3457 41.1716 25.2847 41.8469 25.8443C42.5222 26.4038 43.577 26.6868 45.0112 26.6868C45.5064 26.6868 46.439 26.616 47.8153 26.4681Z"
    fill="#000" />
  <path
    d="M118.379 21.4313V9.16016H122.855V21.7786C122.855 23.2128 123.299 24.3768 124.193 25.2644C125.08 26.1519 126.232 26.6021 127.64 26.6021C128.991 26.6021 130.103 26.1583 130.978 25.2644C131.853 24.3768 132.29 23.2128 132.29 21.7786V9.16016H136.811V21.4313C136.811 24.2161 135.943 26.467 134.207 28.1907C132.47 29.9143 130.283 30.7761 127.64 30.7761C124.939 30.7761 122.727 29.9207 120.99 28.2164C119.247 26.5056 118.379 24.2482 118.379 21.4313Z"
    fill="#000" />
  <path
    d="M29.5158 18.0294V30.3005H25.0395V17.6885C25.0395 16.2543 24.5958 15.0902 23.7018 14.2027C22.8143 13.3087 21.6695 12.865 20.261 12.865C18.9104 12.865 17.7978 13.3087 16.9231 14.2027C16.0485 15.0902 15.6111 16.2543 15.6111 17.6885V30.3069H11.0898V18.0294C11.0898 15.2446 11.9581 12.9936 13.6946 11.27C15.431 9.54638 17.6177 8.68457 20.261 8.68457C22.9622 8.68457 25.1746 9.53995 26.9111 11.2443C28.6476 12.955 29.5158 15.2189 29.5158 18.0294Z"
    fill="#000" />
  <path d="M104.52 30.3002L114.502 9.16016H109.678L103.523 23.1549L97.3171 9.16016H92.5L102.52 30.3002H104.52Z"
    fill="#000" />
  <path
    d="M88.7304 8.68457H86.2415C83.5982 8.68457 81.4115 9.54638 79.675 11.27C77.9386 12.9936 77.0703 15.2446 77.0703 18.0294V30.3005H81.5916V17.6885C81.5916 16.2543 82.0289 15.0902 82.9036 14.2027C83.7783 13.3087 84.8909 12.865 86.2415 12.865H86.2479C86.2608 12.865 86.2736 12.865 86.2801 12.865H88.724V8.68457H88.7304Z"
    fill="#000" />
  <path
    d="M71.9002 9.69435C71.9002 6.94171 70.9677 4.63284 69.1026 2.7806C67.2375 0.928354 64.9093 0.0022325 62.1309 0.0022325C59.1468 -0.0556501 56.5613 1.01196 54.3811 3.2115C52.2009 5.40461 51.1397 8.02862 51.1976 11.0707C51.1976 14.1963 52.2909 16.8203 54.4711 18.9298C56.6514 21.0393 59.3526 22.0941 62.5683 22.0941C65.8097 22.0941 68.6266 20.9622 71.0063 18.6919C69.5528 16.4537 67.9321 16.4602 66.7937 17.0454C66.7422 17.0712 66.6908 17.1033 66.6458 17.129C66.6329 17.1355 66.6136 17.1419 66.6007 17.1548C65.3724 17.7786 64.0732 18.0938 62.6969 18.0938C60.8897 18.0938 59.359 17.5985 58.1113 16.6081C56.8636 15.6177 56.0918 14.2606 55.8089 12.537H71.5658C71.7845 11.4694 71.9002 10.524 71.9002 9.69435ZM55.886 9.00619C56.2333 7.4305 56.9537 6.16994 58.0599 5.23739C59.1661 4.30484 60.4652 3.83535 61.9573 3.83535C63.4815 3.83535 64.7549 4.30484 65.7904 5.23739C66.8259 6.16994 67.3532 7.42407 67.3854 9.00619H55.886Z"
    fill="#000" />
  <path d="M144.484 30.3037L160.523 30.3037L160.523 26.3806L144.484 26.3806L144.484 30.3037Z" fill="#000" />
  <path
    d="M159.819 3.21149C157.638 1.01838 155.053 -0.0556624 152.069 0.00222014C149.284 0.00222014 146.962 0.928341 145.091 2.78058C143.226 4.63283 142.293 6.93527 142.293 9.69433C142.293 10.5304 142.409 11.4758 142.64 12.537H158.397C158.108 14.2606 157.342 15.6177 156.095 16.6081C154.847 17.5985 153.316 18.0937 151.509 18.0937C150.139 18.0937 148.84 17.7786 147.605 17.1548C147.592 17.1483 147.58 17.1419 147.56 17.129C147.509 17.1033 147.457 17.0711 147.406 17.0454C146.268 16.4602 144.647 16.4537 143.193 18.6919C145.579 20.9621 148.39 22.0941 151.631 22.0941C154.847 22.0941 157.548 21.0393 159.728 18.9298C161.909 16.8203 163.002 14.2027 163.002 11.0707C163.066 8.0286 161.999 5.41102 159.819 3.21149ZM146.814 9.00618C146.846 7.43048 147.374 6.16993 148.409 5.23738C149.445 4.30482 150.718 3.83533 152.242 3.83533C153.734 3.83533 155.034 4.30482 156.14 5.23738C157.246 6.16993 157.973 7.42405 158.314 9.00618H146.814Z"
    fill="#000" />
</svg>